<?xml version="1.0" encoding="UTF-8"?>
<!DOCTYPE svg PUBLIC "-//W3C//DTD SVG 1.1//EN" "http://www.w3.org/Graphics/SVG/1.1/DTD/svg11.dtd">
<!-- Creator: CorelDRAW 2019 (64-Bit) -->
<svg xmlns="http://www.w3.org/2000/svg" xml:space="preserve" width="3100px" height="1352px" version="1.1" style="shape-rendering:geometricPrecision; text-rendering:geometricPrecision; image-rendering:optimizeQuality; fill-rule:evenodd; clip-rule:evenodd"
viewBox="0 0 3001.34 1309.16"
 xmlns:xlink="http://www.w3.org/1999/xlink">
 <defs>
  <style type="text/css">
   <![CDATA[
    .fil2 {fill:#C3C3C4}
    .fil1 {fill:white}
    .fil3 {fill:#FEFEFE;fill-rule:nonzero}
    .fil0 {fill:white;fill-rule:nonzero}
   ]]>
  </style>
 </defs>
 <g id="Layer_x0020_1">
  <metadata id="CorelCorpID_0Corel-Layer"/>
  <g id="_2450439681920">
   <polygon class="fil0" points="0,890.04 154.71,890.04 154.71,179.01 0,179.01 "/>
   <polygon class="fil0" points="297.99,179.01 452.7,179.01 452.7,743.19 750.69,743.19 750.69,890.04 297.99,890.04 "/>
   <polygon class="fil0" points="2848.41,179.01 2848.41,639.93 2592.59,179.01 2413.58,179.01 2413.58,890.04 2566.5,890.04 2566.5,425.55 2838.77,890.04 3001.34,890.04 3001.34,179.01 "/>
   <path class="fil0" d="M2284.23 388.75c-18.93,-45.02 -45.02,-84.33 -78.6,-117.91 -33.23,-33.23 -72.89,-59.67 -118.63,-78.61 -45.73,-19.3 -95.4,-28.94 -148.99,-28.94 -53.6,0 -103.26,9.64 -149,28.94 -45.37,18.94 -85.04,45.38 -118.62,78.61 -33.23,33.58 -59.31,72.89 -78.25,117.91 -9.65,22.51 -16.44,45.73 -21.44,70.03 52.88,7.86 104.33,16.79 152.21,27.15 2.86,-15.01 7.15,-29.65 12.51,-43.23 11.43,-27.51 26.79,-51.1 46.8,-71.11 20.01,-19.65 42.88,-35.01 69.68,-45.37 26.44,-10.72 55.02,-16.08 86.11,-16.08 30.37,0 59.31,5.36 86.11,16.08 26.79,10.36 50.02,25.72 70.03,45.37 19.65,20.01 35.37,43.59 46.45,71.11 11.43,27.51 16.79,58.24 16.79,91.82 0,33.95 -5.36,64.32 -16.79,91.83 -11.08,27.51 -26.8,51.09 -46.45,71.1 -20.01,20.01 -43.24,35.02 -70.03,45.74 -26.8,10.36 -55.74,15.72 -86.11,15.72 -31.09,0 -59.67,-5.36 -86.11,-15.72 -26.8,-10.72 -49.67,-25.73 -69.68,-45.74 -17.51,-17.5 -31.44,-37.87 -42.16,-61.1 -167.21,-4.28 -40.02,48.24 11.79,154.72 -46.09,-18.94 -91.82,-41.81 -134.7,-61.1 15,25.01 32.87,47.88 53.24,68.24 33.58,33.59 73.24,59.67 118.62,78.97 45.74,19.29 95.4,28.58 149,28.58 53.59,0 103.26,-9.29 148.99,-28.58 45.74,-19.3 85.4,-45.38 118.63,-78.97 33.58,-33.58 59.67,-72.53 78.6,-117.55 18.58,-45.02 28.23,-93.61 28.23,-146.14 0,-52.16 -9.65,-100.76 -28.23,-145.78l0 0.01z"/>
   <path class="fil1" d="M1257.35 180.44c43.23,8.57 47.88,53.95 118.98,53.24 -53.6,13.22 -79.32,13.22 -118.98,-53.24zm209.74 99.69c-3.22,-9.65 -1.79,-22.51 -9.29,-29.3 -24.66,-20.37 -54.67,-47.17 -82.54,-63.25 -5,-42.87 -58.24,-31.44 -85.75,-48.95 -67.18,-42.87 -146.85,-61.1 -201.52,-119.34 5,26.8 28.94,60.75 92.9,109.34 -87.9,-50.38 -184.01,-56.81 -267.62,-128.63 20.01,57.17 84.32,146.85 150.42,164.72 -17.51,-1.79 -35.73,-4.29 -48.23,-8.94 -115.06,14.65 -187.59,70.75 -232.97,135.42 57.53,-63.24 150.79,-81.11 204.74,-42.16 -29.66,-8.58 -65.74,-12.51 -120.05,5.36 -54.31,17.51 -117.56,112.55 -112.56,170.43 11.08,-90.04 105.41,-107.19 160.08,-96.11 -35.02,3.93 -62.17,5 -98.98,31.44 -48.95,34.66 -76.46,147.21 -64.67,214.38 5.36,-75.39 42.16,-140.77 120.77,-167.57 -71.82,44.66 -93.26,97.18 -99.33,122.19 -5,20.37 -11.43,105.77 1.79,141.85 -11.08,-55.74 -1.08,-102.54 40.73,-135.77 -13.22,18.22 -22.87,30.73 -27.16,67.53 -4.29,36.8 16.08,114.34 37.16,146.14 -15.72,-36.45 -13.57,-75.75 0,-97.91 -4.64,20.37 -3.21,52.53 6.43,77.18 9.65,24.66 35.02,55.38 61.1,81.11 52.17,51.45 118.98,78.25 183.3,89.68 -230.1,-114.33 -196.88,-486.29 17.51,-578.83 -24.3,-35.01 -47.88,-87.18 -39.31,-130.77 0.36,30.73 17.51,67.17 37.88,98.26 8.57,16.08 20.36,31.08 37.51,42.87 82.9,62.89 218.32,-17.5 293.35,48.95 16.44,-15.36 34.66,-41.09 62.17,-30.01 12.51,-21.44 5.36,-44.66 -17.86,-69.32l0 0.01z"/>
   <path class="fil2" d="M1373.83 797.14c-25.37,-52.88 -50.38,-127.55 -100.05,-189.73 -0.71,2.15 -1.78,4.29 -2.85,6.44l23.94 27.15 -28.23 -18.94c-3.22,5.01 -6.79,10.01 -10.72,14.65l32.51 37.52 -41.8 -28.23c-4.29,3.93 -8.93,7.51 -13.94,10.72l29.66 49.67 -43.23 -42.16c-4.65,2.14 -9.65,4.28 -14.65,6.07l10.72 78.61 -31.09 -73.96c-4.64,1.07 -9.65,1.43 -14.65,1.78l-8.93 64.67 -7.86 -64.67c-7.86,-0.35 -15.37,-1.07 -22.87,-2.86l-24.3 56.46 8.94 -60.03c-7.15,-2.14 -14.29,-4.64 -21.44,-7.86l-38.59 49.31 24.3 -56.46c-6.43,-3.57 -12.51,-7.5 -17.87,-11.43l-54.67 40.02 41.09 -51.45c-5.36,-5 -10.36,-10.36 -15,-16.08l-54.31 20.36 45.38 -32.51c-3.22,-4.64 -6.08,-9.65 -8.94,-14.65l-50.02 11.08 44.31 -23.23c-2.15,-5 -3.93,-10 -5.72,-15.36l-45.02 -0.36 41.8 -10.72c-1.07,-3.93 -1.78,-7.86 -2.86,-11.79l-36.08 -7.14 34.66 -2.15c-0.72,-4.64 -1.08,-8.93 -1.43,-13.58l-29.66 -4.64 0.36 -0.36 -2.86 -0.35 31.44 -3.58c-2.86,-68.96 33.95,-130.06 104.69,-180.79 -2.14,-2.5 -3.93,-5.36 -6.07,-8.22 -1.79,0.71 -3.58,1.07 -5.36,1.78 -76.47,32.88 -130.06,102.55 -156.14,179.73 -26.8,78.96 -27.51,168.29 2.14,246.54 15.01,38.59 37.16,73.96 66.82,102.9 15.36,15.37 32.51,28.59 51.45,39.66 0,0 0,0 0,0 7.5,4.29 20.36,8.93 28.94,10.36 19.29,3.22 38.94,5.36 58.95,6.08 97.55,3.21 199.74,-29.3 272.63,-95.76 32.51,-29.66 57.52,-66.81 71.46,-108.62 1.07,-3.93 2.14,-7.86 3.21,-11.79 -53.24,-2.86 -93.25,23.58 -112.19,107.91l0 -0.01z"/>
   <path class="fil1" d="M1059.76 453.77c224.03,-18.58 520.23,17.15 790.71,91.83 -132.56,-15.36 -155.07,22.87 -116.84,62.17 -188.3,-2.5 -114.69,54.31 -40.02,130.77 -131.48,-97.9 -303.35,-122.19 -322.64,4.29 -29.3,-107.9 -125.06,-271.55 -306.21,-273.69 -1.07,-3.22 -3.93,-12.15 -5,-15.37l0 0z"/>
   <path class="fil1" d="M1060.47 453.77l0 0c229.04,-9.29 511.3,43.95 672.8,153.64 -188.65,-2.5 -114.33,54.67 -39.66,131.13 -133.27,-98.61 -303.35,-122.19 -322.64,4.29 -29.3,-107.55 -125.06,-271.55 -306.21,-273.69 -1.07,-3.22 -3.57,-11.44 -4.64,-15.01l0.35 -0.36 0 0z"/>
   <path class="fil1" d="M1060.47 453.77c260.12,-1.07 477.72,125.77 635.29,285.85 -130.77,-98.98 -305.5,-123.27 -324.79,3.21 -29.3,-107.55 -125.06,-271.55 -306.21,-273.69 -1.07,-3.22 -3.57,-11.44 -4.64,-15.01l0 0 0.35 -0.36z"/>
   <path class="fil3" d="M0 1029.03l58.96 0 77.89 133.99 3.93 0 77.89 -133.99 58.95 0 0 274.05 -58.95 0 0 -121.48 3.93 -45.74 -3.93 0 -62.17 108.98 -35.37 0 -62.18 -108.98 -3.93 0 3.93 45.74 0 121.48 -58.95 0 0 -274.05 0 0zm412.33 0l68.6 0 102.55 274.05 -65.75 0 -21.08 -61.45 -100.04 0 -21.08 61.45 -65.75 0 102.55 -274.05 0 0zm65.38 158.29l-20.01 -57.17 -9.29 -33.59 -3.57 0 -9.29 33.59 -20.01 57.17 62.17 0 0 0zm137.92 -158.29l59.67 0 0 274.05 -59.67 0 0 -274.05zm114.7 0l68.96 0 98.61 169 3.93 0 -3.93 -52.52 0 -116.48 58.96 0 0 274.05 -62.89 0 -104.69 -179.01 -3.93 0 3.93 52.88 0 126.13 -58.95 0 0 -274.05 0 0zm365.52 0l68.96 0 98.61 169 3.93 0 -3.93 -52.52 0 -116.48 58.96 0 0 274.05 -62.89 0 -104.69 -179.01 -3.93 0 3.93 52.88 0 126.13 -58.95 0 0 -274.05 0 0zm341.22 56.81l0 51.81 108.62 0 0 56.81 -108.62 0 0 51.81 120.77 0 0 56.81 -180.44 0 0 -274.05 180.44 0 0 56.81 -120.77 0zm226.53 217.24l0 -217.24 -76.46 0 0 -56.81 212.59 0 0 56.81 -76.46 0 0 217.24 -59.67 0 0 0zm151.14 -274.05l63.6 0 37.87 143.64 6.43 32.87 3.93 0 7.87 -32.87 33.58 -106.84 55.74 0 33.59 106.84 7.5 32.15 3.93 0 5.72 -32.15 35.73 -143.64 63.24 0 -72.18 274.05 -56.45 0 -39.3 -120.05 -7.86 -32.87 -3.93 0 -7.86 32.87 -38.95 120.05 -56.81 0 -75.39 -274.05 0 0zm519.52 280.13c-20.73,0 -39.66,-3.93 -57.53,-11.08 -17.51,-7.5 -32.87,-17.51 -45.73,-30.37 -12.87,-12.86 -22.87,-28.23 -30.02,-45.38 -7.14,-17.51 -11.07,-36.08 -11.07,-56.09 0,-20.37 3.93,-38.95 11.07,-56.46 7.15,-17.15 17.15,-32.51 30.02,-45.38 12.86,-12.86 28.22,-22.86 45.73,-30.37 17.87,-7.14 36.8,-11.07 57.53,-11.07 20.72,0 39.66,3.93 57.17,11.07 17.86,7.51 32.87,17.51 45.73,30.37 12.86,12.87 22.87,28.23 30.37,45.38 7.15,17.51 10.72,36.09 10.72,56.46 0,20.01 -3.57,38.58 -10.72,56.09 -7.5,17.15 -17.51,32.52 -30.37,45.38 -12.86,12.86 -27.87,22.87 -45.73,30.37 -17.51,7.15 -36.45,11.08 -57.17,11.08zm0 -56.82c11.79,0 22.86,-1.78 32.87,-6.07 10.36,-3.93 19.29,-10 27.15,-17.51 7.51,-7.5 13.58,-16.79 17.87,-27.15 4.29,-10.72 6.43,-22.51 6.43,-35.38 0,-13.22 -2.14,-25.01 -6.43,-35.37 -4.29,-10.72 -10.36,-20.01 -17.87,-27.51 -7.86,-7.51 -16.79,-13.58 -27.15,-17.51 -10.01,-4.29 -21.08,-6.07 -32.87,-6.07 -12.15,0 -23.23,1.78 -33.23,6.07 -10.36,3.93 -19.3,10 -26.8,17.51 -7.86,7.5 -13.58,16.79 -18.22,27.51 -4.29,10.36 -6.43,22.15 -6.43,35.37 0,12.87 2.14,24.66 6.43,35.38 4.64,10.36 10.36,19.65 18.22,27.15 7.5,7.51 16.43,13.58 26.8,17.51 10,4.29 21.08,6.07 33.23,6.07zm185.79 -223.31l103.26 0c14.65,0 27.87,2.5 39.66,6.79 11.8,4.64 21.8,10.72 29.66,18.58 8.22,7.86 14.29,17.15 18.58,28.23 3.93,10.71 6.07,22.51 6.07,35.37 0,8.93 -1.42,17.15 -4.28,24.65 -2.86,7.86 -6.79,14.65 -11.79,21.44 -5.01,6.43 -10.72,12.15 -17.51,17.15 -6.79,5 -13.94,8.94 -21.44,12.51l0 3.21 71.46 102.19 0 3.93 -67.89 0 -69.31 -98.61 -16.8 0 0 98.61 -59.67 0 0 -274.05 0 0zm103.26 120.05c10.72,0 18.94,-2.85 25.37,-9.29 6.08,-6.07 8.94,-13.93 8.94,-23.22 0,-8.93 -2.86,-16.79 -8.58,-22.87 -5.72,-6.43 -14.29,-9.29 -25.72,-9.29l-43.6 0 0 64.67 43.6 0 -0.01 0zm141.85 -120.05l59.67 0 0 105.76 3.93 0 90.04 -105.76 70.75 0 0 3.93 -97.54 111.48 109.33 154.71 0 3.93 -72.53 0 -77.89 -111.48 -26.09 30.37 0 81.11 -59.67 0 0 -274.05 0 0z"/>
  </g>
 </g>
</svg>
