<?xml version="1.0" encoding="UTF-8"?>
<!DOCTYPE svg PUBLIC "-//W3C//DTD SVG 1.1//EN" "http://www.w3.org/Graphics/SVG/1.1/DTD/svg11.dtd">
<!-- Creator: CorelDRAW 2019 (64-Bit) -->
<svg xmlns="http://www.w3.org/2000/svg" xml:space="preserve" width="512px" height="83px" version="1.1" style="shape-rendering:geometricPrecision; text-rendering:geometricPrecision; image-rendering:optimizeQuality; fill-rule:evenodd; clip-rule:evenodd"
viewBox="0 0 76.52 12.47"
 xmlns:xlink="http://www.w3.org/1999/xlink">
 <defs>
  <style type="text/css">
   <![CDATA[
    .fil2 {fill:#C3C3C4}
    .fil1 {fill:white}
    .fil3 {fill:#FEFEFE;fill-rule:nonzero}
    .fil0 {fill:white;fill-rule:nonzero}
   ]]>
  </style>
 </defs>
 <g id="Layer_x0020_1">
  <metadata id="CorelCorpID_0Corel-Layer"/>
  <g id="_2083506710448">
   <g>
    <polygon class="fil0" points="0,10.33 1.8,10.33 1.8,2.08 0,2.08 "/>
    <polygon class="fil0" points="3.46,2.08 5.25,2.08 5.25,8.62 8.71,8.62 8.71,10.33 3.46,10.33 "/>
    <polygon class="fil0" points="33.06,2.08 33.06,7.42 30.08,2.08 28.01,2.08 28.01,10.33 29.78,10.33 29.78,4.94 32.94,10.33 34.83,10.33 34.83,2.08 "/>
    <path class="fil0" d="M26.51 4.51c-0.22,-0.52 -0.53,-0.98 -0.92,-1.37 -0.38,-0.38 -0.84,-0.69 -1.37,-0.91 -0.53,-0.22 -1.11,-0.34 -1.73,-0.34 -0.62,0 -1.2,0.12 -1.73,0.34 -0.53,0.22 -0.99,0.53 -1.38,0.91 -0.38,0.39 -0.69,0.85 -0.91,1.37 -0.11,0.26 -0.19,0.53 -0.24,0.82 0.61,0.08 1.21,0.19 1.76,0.31 0.03,-0.18 0.08,-0.34 0.15,-0.5 0.13,-0.32 0.31,-0.6 0.54,-0.83 0.23,-0.23 0.5,-0.4 0.81,-0.53 0.3,-0.12 0.64,-0.18 1,-0.18 0.35,0 0.68,0.06 1,0.18 0.31,0.13 0.58,0.3 0.81,0.53 0.23,0.23 0.41,0.51 0.54,0.83 0.13,0.32 0.2,0.67 0.2,1.06 0,0.39 -0.07,0.75 -0.2,1.07 -0.13,0.32 -0.31,0.59 -0.54,0.82 -0.23,0.23 -0.5,0.41 -0.81,0.53 -0.31,0.12 -0.65,0.19 -1,0.19 -0.36,0 -0.7,-0.07 -1,-0.19 -0.31,-0.12 -0.58,-0.3 -0.81,-0.53 -0.2,-0.2 -0.36,-0.44 -0.49,-0.71 -1.94,-0.05 -0.46,0.56 0.14,1.8 -0.54,-0.22 -1.07,-0.49 -1.57,-0.71 0.18,0.29 0.38,0.55 0.62,0.79 0.39,0.39 0.85,0.69 1.38,0.92 0.53,0.22 1.11,0.33 1.73,0.33 0.62,0 1.2,-0.11 1.73,-0.33 0.53,-0.23 0.99,-0.53 1.37,-0.92 0.39,-0.39 0.7,-0.84 0.92,-1.37 0.21,-0.52 0.32,-1.08 0.32,-1.69 0,-0.61 -0.11,-1.17 -0.32,-1.69l0 0z"/>
    <path class="fil1" d="M14.59 2.1c0.5,0.09 0.56,0.62 1.38,0.61 -0.62,0.16 -0.92,0.16 -1.38,-0.61zm2.43 1.15c-0.03,-0.11 -0.01,-0.26 -0.11,-0.34 -0.28,-0.24 -0.63,-0.55 -0.95,-0.73 -0.06,-0.5 -0.67,-0.37 -1,-0.57 -0.78,-0.5 -1.7,-0.71 -2.33,-1.38 0.05,0.31 0.33,0.7 1.07,1.26 -1.02,-0.58 -2.13,-0.65 -3.1,-1.49 0.23,0.66 0.98,1.71 1.74,1.91 -0.2,-0.02 -0.41,-0.05 -0.56,-0.1 -1.33,0.17 -2.17,0.82 -2.7,1.57 0.67,-0.74 1.75,-0.94 2.38,-0.49 -0.35,-0.1 -0.77,-0.14 -1.4,0.06 -0.63,0.21 -1.36,1.31 -1.3,1.98 0.13,-1.05 1.22,-1.24 1.86,-1.11 -0.41,0.04 -0.73,0.05 -1.15,0.36 -0.57,0.4 -0.89,1.71 -0.75,2.49 0.06,-0.88 0.49,-1.64 1.4,-1.95 -0.83,0.52 -1.08,1.13 -1.15,1.42 -0.06,0.24 -0.14,1.23 0.02,1.65 -0.13,-0.65 -0.02,-1.19 0.47,-1.58 -0.16,0.21 -0.27,0.36 -0.32,0.78 -0.05,0.43 0.19,1.33 0.44,1.7 -0.19,-0.42 -0.16,-0.88 0,-1.14 -0.06,0.24 -0.04,0.61 0.07,0.9 0.11,0.29 0.41,0.64 0.71,0.94 0.61,0.6 1.38,0.91 2.13,1.04 -2.68,-1.32 -2.29,-5.64 0.2,-6.71 -0.28,-0.41 -0.56,-1.01 -0.46,-1.52 0.01,0.35 0.21,0.78 0.44,1.14 0.1,0.19 0.24,0.36 0.44,0.5 0.96,0.73 2.53,-0.21 3.4,0.57 0.2,-0.18 0.4,-0.48 0.72,-0.35 0.15,-0.25 0.07,-0.52 -0.2,-0.81l-0.01 0z"/>
    <path class="fil2" d="M15.94 9.25c-0.29,-0.62 -0.58,-1.48 -1.16,-2.2 -0.01,0.02 -0.02,0.05 -0.03,0.07l0.28 0.32 -0.33 -0.22c-0.04,0.06 -0.08,0.12 -0.13,0.17l0.38 0.43 -0.48 -0.32c-0.05,0.04 -0.11,0.08 -0.17,0.12l0.35 0.58 -0.5 -0.49c-0.06,0.02 -0.12,0.05 -0.18,0.07l0.13 0.91 -0.36 -0.86c-0.06,0.01 -0.11,0.02 -0.17,0.02l-0.1 0.75 -0.1 -0.75c-0.08,0 -0.17,-0.01 -0.26,-0.03l-0.28 0.65 0.1 -0.69c-0.08,-0.03 -0.17,-0.06 -0.25,-0.09l-0.45 0.57 0.28 -0.65c-0.07,-0.05 -0.14,-0.09 -0.2,-0.14l-0.63 0.47 0.47 -0.6c-0.06,-0.06 -0.12,-0.12 -0.17,-0.19l-0.63 0.24 0.52 -0.38c-0.03,-0.05 -0.07,-0.11 -0.1,-0.17l-0.58 0.13 0.51 -0.27c-0.02,-0.06 -0.04,-0.12 -0.06,-0.18l-0.53 0 0.49 -0.13c-0.01,-0.04 -0.02,-0.09 -0.03,-0.13l-0.42 -0.09 0.4 -0.02c-0.01,-0.05 -0.01,-0.11 -0.02,-0.16l-0.34 -0.05 0 -0.01 -0.03 0 0.36 -0.04c-0.03,-0.8 0.4,-1.51 1.22,-2.1 -0.02,-0.03 -0.05,-0.06 -0.07,-0.1 -0.02,0.01 -0.04,0.02 -0.06,0.03 -0.89,0.38 -1.51,1.18 -1.81,2.08 -0.32,0.92 -0.32,1.95 0.02,2.86 0.17,0.45 0.43,0.86 0.78,1.2 0.17,0.17 0.38,0.33 0.59,0.45 0,0 0,0.01 0,0.01 0.09,0.05 0.24,0.1 0.34,0.12 0.22,0.04 0.45,0.06 0.68,0.07 1.13,0.03 2.32,-0.34 3.17,-1.12 0.38,-0.34 0.67,-0.77 0.82,-1.26 0.02,-0.04 0.03,-0.09 0.05,-0.13 -0.62,-0.03 -1.09,0.27 -1.31,1.25l0 0z"/>
    <path class="fil1" d="M12.3 5.27c2.6,-0.22 6.03,0.2 9.17,1.06 -1.54,-0.18 -1.8,0.27 -1.35,0.72 -2.19,-0.02 -1.33,0.63 -0.47,1.52 -1.52,-1.14 -3.52,-1.42 -3.74,0.05 -0.34,-1.25 -1.45,-3.15 -3.56,-3.18 -0.01,-0.03 -0.04,-0.14 -0.05,-0.17l0 0z"/>
    <path class="fil1" d="M12.3 5.26l0.01 0c2.65,-0.1 5.93,0.51 7.8,1.79 -2.18,-0.03 -1.32,0.63 -0.46,1.52 -1.54,-1.15 -3.52,-1.42 -3.74,0.05 -0.34,-1.25 -1.45,-3.15 -3.56,-3.18 -0.01,-0.03 -0.04,-0.13 -0.05,-0.17l0.01 -0.01 -0.01 0z"/>
    <path class="fil1" d="M12.3 5.26c3.02,-0.01 5.55,1.47 7.38,3.32 -1.52,-1.15 -3.55,-1.43 -3.77,0.04 -0.34,-1.25 -1.45,-3.15 -3.56,-3.18 -0.01,-0.03 -0.04,-0.13 -0.05,-0.17l0 0 0 -0.01 0 0z"/>
   </g>
   <path class="fil3" d="M42.48 8.99c-0.24,0.41 -0.55,0.75 -0.95,1.01 -0.4,0.25 -0.89,0.38 -1.47,0.38 -0.39,0 -0.75,-0.07 -1.08,-0.2 -0.33,-0.14 -0.61,-0.33 -0.86,-0.57 -0.24,-0.24 -0.43,-0.53 -0.56,-0.86 -0.14,-0.33 -0.21,-0.69 -0.21,-1.09 0,-0.37 0.07,-0.71 0.2,-1.04 0.13,-0.33 0.32,-0.62 0.55,-0.87 0.24,-0.25 0.52,-0.44 0.84,-0.59 0.32,-0.14 0.68,-0.22 1.07,-0.22 0.41,0 0.77,0.07 1.09,0.21 0.32,0.13 0.59,0.32 0.81,0.56 0.21,0.24 0.37,0.52 0.49,0.85 0.11,0.32 0.16,0.68 0.16,1.06 0,0.05 0,0.09 0,0.13 0,0.04 -0.01,0.08 -0.01,0.11 0,0.04 -0.01,0.07 -0.01,0.12l-3.84 0c0.02,0.2 0.08,0.38 0.17,0.53 0.09,0.15 0.19,0.28 0.32,0.38 0.13,0.1 0.27,0.17 0.42,0.22 0.16,0.04 0.31,0.06 0.47,0.06 0.32,0 0.57,-0.07 0.78,-0.21 0.2,-0.14 0.37,-0.32 0.48,-0.54l1.14 0.57zm-1.24 -1.98c-0.01,-0.09 -0.04,-0.2 -0.09,-0.31 -0.05,-0.11 -0.13,-0.21 -0.23,-0.31 -0.1,-0.1 -0.22,-0.18 -0.37,-0.24 -0.15,-0.06 -0.33,-0.09 -0.54,-0.09 -0.29,0 -0.55,0.08 -0.77,0.25 -0.22,0.16 -0.38,0.4 -0.47,0.7l2.47 0zm3.37 0.61l-1.76 -2.51 1.62 0 0.93 1.42 0.07 0 0.88 -1.42 1.66 0 -1.79 2.51 1.79 2.6 -1.6 0 -0.96 -1.46 -0.07 0 -0.93 1.46 -1.62 0 1.78 -2.6zm4.04 -2.51l1.28 0 0 0.61 0.08 0c0.13,-0.21 0.32,-0.4 0.59,-0.55 0.26,-0.15 0.59,-0.23 0.98,-0.23 0.32,0 0.64,0.07 0.93,0.21 0.3,0.13 0.56,0.32 0.78,0.56 0.23,0.24 0.41,0.52 0.54,0.86 0.13,0.33 0.2,0.7 0.2,1.09 0,0.4 -0.07,0.76 -0.2,1.1 -0.13,0.33 -0.31,0.62 -0.54,0.86 -0.22,0.24 -0.48,0.42 -0.78,0.56 -0.29,0.13 -0.61,0.2 -0.93,0.2 -0.39,0 -0.72,-0.07 -0.98,-0.23 -0.27,-0.15 -0.46,-0.33 -0.59,-0.55l-0.08 0 0.08 0.73 0 2.14 -1.36 0 0 -7.36zm2.65 4.01c0.18,0 0.35,-0.03 0.51,-0.1 0.17,-0.07 0.31,-0.17 0.43,-0.29 0.13,-0.13 0.23,-0.28 0.31,-0.46 0.07,-0.18 0.11,-0.39 0.11,-0.61 0,-0.22 -0.04,-0.42 -0.11,-0.6 -0.08,-0.18 -0.18,-0.34 -0.31,-0.46 -0.12,-0.13 -0.26,-0.22 -0.43,-0.29 -0.16,-0.07 -0.33,-0.11 -0.51,-0.11 -0.18,0 -0.36,0.04 -0.52,0.1 -0.16,0.07 -0.31,0.16 -0.43,0.29 -0.13,0.12 -0.23,0.28 -0.3,0.46 -0.08,0.18 -0.12,0.38 -0.12,0.61 0,0.23 0.04,0.44 0.12,0.62 0.07,0.18 0.17,0.33 0.3,0.46 0.12,0.12 0.27,0.22 0.43,0.28 0.16,0.07 0.34,0.1 0.52,0.1zm3.5 1.1l0 -7.47 1.36 0 0 7.47 -1.36 0zm4.9 -5.28c0.39,0 0.76,0.07 1.09,0.21 0.33,0.13 0.61,0.32 0.85,0.56 0.24,0.24 0.43,0.52 0.56,0.86 0.14,0.33 0.21,0.7 0.21,1.09 0,0.4 -0.07,0.76 -0.21,1.1 -0.13,0.33 -0.32,0.62 -0.56,0.86 -0.24,0.24 -0.52,0.42 -0.85,0.56 -0.33,0.13 -0.7,0.2 -1.09,0.2 -0.4,0 -0.76,-0.07 -1.09,-0.2 -0.33,-0.14 -0.62,-0.32 -0.86,-0.56 -0.24,-0.24 -0.42,-0.53 -0.56,-0.86 -0.14,-0.34 -0.2,-0.7 -0.2,-1.1 0,-0.39 0.06,-0.76 0.2,-1.09 0.14,-0.34 0.32,-0.62 0.56,-0.86 0.24,-0.24 0.53,-0.43 0.86,-0.56 0.33,-0.14 0.69,-0.21 1.09,-0.21zm0 4.18c0.17,0 0.34,-0.03 0.5,-0.1 0.16,-0.06 0.31,-0.16 0.43,-0.28 0.13,-0.13 0.23,-0.28 0.3,-0.46 0.07,-0.18 0.11,-0.39 0.11,-0.62 0,-0.23 -0.04,-0.43 -0.11,-0.61 -0.07,-0.18 -0.17,-0.34 -0.3,-0.46 -0.12,-0.13 -0.27,-0.22 -0.43,-0.29 -0.16,-0.06 -0.33,-0.1 -0.5,-0.1 -0.18,0 -0.35,0.04 -0.51,0.1 -0.16,0.07 -0.31,0.16 -0.43,0.29 -0.13,0.12 -0.23,0.28 -0.3,0.46 -0.07,0.18 -0.11,0.38 -0.11,0.61 0,0.23 0.04,0.44 0.11,0.62 0.07,0.18 0.17,0.33 0.3,0.46 0.12,0.12 0.27,0.22 0.43,0.28 0.16,0.07 0.33,0.1 0.51,0.1zm3.48 -4.01l1.28 0 0 0.71 0.08 0c0.06,-0.13 0.15,-0.24 0.25,-0.35 0.11,-0.1 0.22,-0.19 0.35,-0.27 0.13,-0.08 0.27,-0.14 0.42,-0.19 0.15,-0.04 0.3,-0.07 0.44,-0.07 0.18,0 0.34,0.02 0.46,0.06 0.13,0.04 0.24,0.09 0.33,0.15l-0.36 1.22c-0.08,-0.04 -0.18,-0.07 -0.28,-0.1 -0.1,-0.02 -0.22,-0.04 -0.37,-0.04 -0.19,0 -0.36,0.04 -0.51,0.11 -0.15,0.08 -0.28,0.18 -0.39,0.31 -0.11,0.14 -0.19,0.29 -0.25,0.47 -0.06,0.18 -0.09,0.37 -0.09,0.58l0 2.52 -1.36 0 0 -5.11zm8.76 3.88c-0.23,0.41 -0.55,0.75 -0.95,1.01 -0.4,0.25 -0.89,0.38 -1.47,0.38 -0.39,0 -0.74,-0.07 -1.07,-0.2 -0.33,-0.14 -0.62,-0.33 -0.86,-0.57 -0.25,-0.24 -0.44,-0.53 -0.57,-0.86 -0.14,-0.33 -0.21,-0.69 -0.21,-1.09 0,-0.37 0.07,-0.71 0.2,-1.04 0.13,-0.33 0.32,-0.62 0.55,-0.87 0.24,-0.25 0.52,-0.44 0.84,-0.59 0.33,-0.14 0.68,-0.22 1.07,-0.22 0.41,0 0.78,0.07 1.1,0.21 0.32,0.13 0.58,0.32 0.8,0.56 0.21,0.24 0.38,0.52 0.49,0.85 0.11,0.32 0.16,0.68 0.16,1.06 0,0.05 0,0.09 0,0.13 0,0.04 -0.01,0.08 -0.01,0.11 0,0.04 -0.01,0.07 -0.01,0.12l-3.84 0c0.03,0.2 0.08,0.38 0.17,0.53 0.09,0.15 0.2,0.28 0.32,0.38 0.13,0.1 0.27,0.17 0.43,0.22 0.15,0.04 0.3,0.06 0.46,0.06 0.32,0 0.58,-0.07 0.78,-0.21 0.21,-0.14 0.37,-0.32 0.49,-0.54l1.13 0.57zm-1.24 -1.98c-0.01,-0.09 -0.04,-0.2 -0.09,-0.31 -0.05,-0.11 -0.13,-0.21 -0.23,-0.31 -0.1,-0.1 -0.22,-0.18 -0.37,-0.24 -0.15,-0.06 -0.33,-0.09 -0.54,-0.09 -0.29,0 -0.55,0.08 -0.77,0.25 -0.22,0.16 -0.38,0.4 -0.47,0.7l2.47 0zm2.2 -1.9l1.28 0 0 0.71 0.09 0c0.06,-0.13 0.14,-0.24 0.25,-0.35 0.1,-0.1 0.22,-0.19 0.34,-0.27 0.13,-0.08 0.27,-0.14 0.42,-0.19 0.15,-0.04 0.3,-0.07 0.44,-0.07 0.19,0 0.34,0.02 0.47,0.06 0.13,0.04 0.24,0.09 0.33,0.15l-0.37 1.22c-0.08,-0.04 -0.17,-0.07 -0.27,-0.1 -0.11,-0.02 -0.23,-0.04 -0.37,-0.04 -0.19,0 -0.36,0.04 -0.51,0.11 -0.16,0.08 -0.29,0.18 -0.4,0.31 -0.1,0.14 -0.19,0.29 -0.25,0.47 -0.05,0.18 -0.08,0.37 -0.08,0.58l0 2.52 -1.37 0 0 -5.11z"/>
  </g>
 </g>
</svg>
