<?xml version="1.0" encoding="UTF-8"?>
<!DOCTYPE svg PUBLIC "-//W3C//DTD SVG 1.1//EN" "http://www.w3.org/Graphics/SVG/1.1/DTD/svg11.dtd">
<!-- Creator: CorelDRAW 2019 (64-Bit) -->
<svg xmlns="http://www.w3.org/2000/svg" xml:space="preserve" width="509px" height="83px" version="1.1" style="shape-rendering:geometricPrecision; text-rendering:geometricPrecision; image-rendering:optimizeQuality; fill-rule:evenodd; clip-rule:evenodd"
viewBox="0 0 39.67 6.46"
 xmlns:xlink="http://www.w3.org/1999/xlink">
 <defs>
  <style type="text/css">
   <![CDATA[
    .fil0 {fill:#613B91;fill-rule:nonzero}
    .fil6 {fill:#8258CD;fill-rule:nonzero}
    .fil3 {fill:url(#id0)}
    .fil5 {fill:url(#id1)}
    .fil4 {fill:url(#id2)}
    .fil2 {fill:url(#id3)}
    .fil1 {fill:url(#id4)}
   ]]>
  </style>
  <linearGradient id="id0" gradientUnits="userSpaceOnUse" x1="6.74" y1="4.28" x2="10.81" y2="2.87">
   <stop offset="0" style="stop-opacity:1; stop-color:#25306C"/>
   <stop offset="1" style="stop-opacity:1; stop-color:#613B91"/>
  </linearGradient>
  <linearGradient id="id1" gradientUnits="userSpaceOnUse" xlink:href="#id0" x1="9.25" y1="3.56" x2="7.5" y2="3.64">
  </linearGradient>
  <linearGradient id="id2" gradientUnits="userSpaceOnUse" xlink:href="#id0" x1="9.28" y1="3.06" x2="8.66" y2="3.44">
  </linearGradient>
  <linearGradient id="id3" gradientUnits="userSpaceOnUse" x1="8.12" y1="3.54" x2="4.99" y2="4.02">
   <stop offset="0" style="stop-opacity:1; stop-color:#613B91"/>
   <stop offset="1" style="stop-opacity:1; stop-color:#25306C"/>
  </linearGradient>
  <linearGradient id="id4" gradientUnits="userSpaceOnUse" xlink:href="#id0" x1="7.47" y1="2.59" x2="4.29" y2="3.07">
  </linearGradient>
 </defs>
 <g id="Layer_x0020_1">
  <metadata id="CorelCorpID_0Corel-Layer"/>
  <g id="_2450436243520">
   <polygon class="fil0" points="0,1.08 0.93,1.08 0.93,5.35 0,5.35 "/>
   <polygon class="fil0" points="1.79,1.08 2.72,1.08 2.72,4.47 4.52,4.47 4.52,5.35 1.79,5.35 "/>
   <polygon class="fil0" points="14.52,1.08 15.6,1.08 17.14,3.85 17.14,1.08 18.06,1.08 18.06,5.35 17.08,5.35 15.44,2.56 15.44,5.35 14.52,5.35 "/>
   <path class="fil0" d="M13.74 2.34c-0.11,-0.27 -0.27,-0.51 -0.47,-0.71 -0.2,-0.2 -0.44,-0.36 -0.71,-0.47 -0.28,-0.12 -0.58,-0.18 -0.9,-0.18 -0.32,0 -0.62,0.06 -0.9,0.18 -0.27,0.11 -0.51,0.27 -0.71,0.47 -0.2,0.2 -0.36,0.44 -0.47,0.71 -0.06,0.13 -0.1,0.27 -0.13,0.42 0.32,0.05 0.63,0.1 0.92,0.16 0.01,-0.09 0.04,-0.17 0.07,-0.26 0.07,-0.16 0.16,-0.3 0.28,-0.42 0.12,-0.12 0.26,-0.21 0.42,-0.28 0.16,-0.06 0.33,-0.09 0.52,-0.09 0.18,0 0.36,0.03 0.52,0.09 0.16,0.07 0.3,0.16 0.42,0.28 0.12,0.12 0.21,0.26 0.28,0.42 0.07,0.17 0.1,0.35 0.1,0.56 0,0.2 -0.03,0.38 -0.1,0.55 -0.07,0.16 -0.16,0.31 -0.28,0.43 -0.12,0.12 -0.26,0.21 -0.42,0.27 -0.16,0.06 -0.34,0.1 -0.52,0.1 -0.19,0 -0.36,-0.04 -0.52,-0.1 -0.16,-0.06 -0.3,-0.15 -0.42,-0.27 -0.1,-0.11 -0.19,-0.23 -0.25,-0.37 -1.01,-0.03 -0.24,0.29 0.07,0.93 -0.28,-0.12 -0.55,-0.25 -0.81,-0.37 0.09,0.15 0.2,0.29 0.32,0.41 0.2,0.2 0.44,0.36 0.71,0.48 0.28,0.11 0.58,0.17 0.9,0.17 0.32,0 0.62,-0.06 0.9,-0.17 0.27,-0.12 0.51,-0.28 0.71,-0.48 0.2,-0.2 0.36,-0.43 0.47,-0.71 0.12,-0.27 0.17,-0.56 0.17,-0.87 0,-0.32 -0.05,-0.61 -0.17,-0.88z"/>
  </g>
  <g id="_2450436246592">
   <path class="fil1" d="M8.83 1.69c-0.02,-0.06 -0.01,-0.14 -0.06,-0.18 -0.15,-0.12 -0.33,-0.29 -0.5,-0.38 -0.03,-0.26 -0.35,-0.19 -0.51,-0.3 -0.41,-0.25 -0.89,-0.36 -1.21,-0.71 0.03,0.16 0.17,0.36 0.55,0.65 -0.52,-0.3 -1.1,-0.34 -1.61,-0.77 0.12,0.34 0.51,0.88 0.91,0.99 -0.11,-0.01 -0.22,-0.02 -0.29,-0.05 -0.69,0.08 -1.13,0.42 -1.4,0.81 0.34,-0.38 0.91,-0.49 1.23,-0.25 -0.18,-0.05 -0.4,-0.08 -0.72,0.03 -0.33,0.11 -0.71,0.68 -0.68,1.03 0.07,-0.55 0.63,-0.65 0.96,-0.58 -0.21,0.02 -0.37,0.03 -0.59,0.19 -0.3,0.21 -0.46,0.88 -0.39,1.29 0.03,-0.46 0.25,-0.85 0.72,-1.01 -0.43,0.27 -0.56,0.58 -0.59,0.73 -0.03,0.13 -0.07,0.64 0.01,0.86 -0.07,-0.34 -0.01,-0.62 0.24,-0.82 -0.08,0.11 -0.13,0.19 -0.16,0.41 -0.03,0.22 0.1,0.69 0.22,0.88 -0.09,-0.22 -0.08,-0.46 0,-0.59 -0.02,0.12 -0.02,0.31 0.04,0.46 0.06,0.15 0.21,0.33 0.37,0.49 0.31,0.31 0.72,0.47 1.1,0.54 -1.38,-0.69 -1.18,-2.93 0.11,-3.48 -0.15,-0.21 -0.29,-0.53 -0.24,-0.79 0,0.18 0.11,0.4 0.23,0.59 0.05,0.1 0.12,0.19 0.22,0.26 0.5,0.38 1.32,-0.11 1.77,0.29 0.1,-0.09 0.21,-0.24 0.37,-0.18 0.08,-0.13 0.04,-0.27 -0.1,-0.41zm-1.26 -0.6l0 0c0.26,0.05 0.28,0.32 0.71,0.32 -0.32,0.08 -0.48,0.08 -0.71,-0.32z"/>
   <path class="fil2" d="M8.27 4.8c-0.16,-0.32 -0.31,-0.77 -0.61,-1.15 0,0.02 -0.01,0.03 -0.01,0.04l0.14 0.17 -0.17 -0.12c-0.02,0.03 -0.04,0.06 -0.06,0.09l0.19 0.23 -0.25 -0.17c-0.03,0.02 -0.05,0.04 -0.08,0.06l0.18 0.3 -0.26 -0.25c-0.03,0.01 -0.06,0.02 -0.09,0.03l0.06 0.48 -0.19 -0.45c-0.02,0.01 -0.05,0.01 -0.08,0.01l-0.06 0.39 -0.05 -0.39c-0.04,0 -0.09,-0.01 -0.13,-0.01l-0.15 0.33 0.05 -0.36c-0.04,-0.01 -0.08,-0.03 -0.12,-0.04l-0.24 0.29 0.15 -0.34c-0.04,-0.02 -0.07,-0.04 -0.11,-0.07l-0.33 0.24 0.25 -0.3c-0.03,-0.04 -0.06,-0.07 -0.09,-0.1l-0.33 0.12 0.28 -0.19c-0.02,-0.03 -0.04,-0.06 -0.06,-0.09l-0.3 0.06 0.27 -0.14c-0.01,-0.03 -0.03,-0.06 -0.04,-0.09l-0.27 0 0.25 -0.07c0,-0.02 -0.01,-0.04 -0.01,-0.07l-0.22 -0.04 0.21 -0.01c-0.01,-0.03 -0.01,-0.06 -0.01,-0.08l-0.18 -0.03 0 0 -0.01 -0.01 0.19 -0.02c-0.02,-0.41 0.2,-0.78 0.63,-1.08 -0.02,-0.02 -0.03,-0.04 -0.04,-0.05 -0.01,0 -0.02,0 -0.03,0.01 -0.46,0.19 -0.78,0.61 -0.94,1.08 -0.16,0.47 -0.17,1.01 0.01,1.48 0.09,0.23 0.22,0.45 0.4,0.62 0.09,0.09 0.2,0.17 0.31,0.24 0,0 0,0 0,0 0.05,0.02 0.12,0.05 0.18,0.06 0.11,0.02 0.23,0.03 0.35,0.04 0.59,0.02 1.2,-0.18 1.64,-0.58 0.2,-0.18 0.35,-0.4 0.43,-0.65 0.01,-0.03 0.01,-0.05 0.02,-0.07 -0.32,-0.02 -0.56,0.14 -0.67,0.65z"/>
   <path class="fil3" d="M6.38 2.73c1.34,-0.11 3.13,0.1 4.75,0.55 -0.8,-0.09 -0.93,0.14 -0.7,0.38 -1.13,-0.02 -0.69,0.32 -0.24,0.78 -0.79,-0.59 -1.83,-0.73 -1.94,0.03 -0.18,-0.65 -0.75,-1.63 -1.85,-1.65 0,-0.02 -0.02,-0.07 -0.02,-0.09z"/>
   <path class="fil4" d="M6.38 2.73l0 0c1.38,-0.06 3.08,0.26 4.05,0.92 -1.14,-0.01 -0.69,0.33 -0.24,0.79 -0.8,-0.59 -1.83,-0.73 -1.94,0.03 -0.18,-0.65 -0.75,-1.63 -1.85,-1.65 0,-0.02 -0.02,-0.07 -0.02,-0.09l0 0z"/>
   <path class="fil5" d="M6.38 2.73c1.57,-0.01 2.87,0.76 3.82,1.72 -0.78,-0.6 -1.84,-0.74 -1.95,0.02 -0.18,-0.65 -0.75,-1.63 -1.85,-1.65 0,-0.02 -0.02,-0.07 -0.02,-0.09l0 0 0 0z"/>
  </g>
  <path class="fil6" d="M22.02 4.66c-0.12,0.22 -0.28,0.39 -0.49,0.52 -0.21,0.14 -0.46,0.2 -0.76,0.2 -0.2,0 -0.39,-0.03 -0.56,-0.1 -0.17,-0.07 -0.32,-0.17 -0.44,-0.3 -0.13,-0.12 -0.23,-0.27 -0.3,-0.44 -0.07,-0.17 -0.1,-0.36 -0.1,-0.57 0,-0.19 0.03,-0.37 0.1,-0.54 0.07,-0.17 0.16,-0.32 0.28,-0.45 0.13,-0.13 0.27,-0.23 0.44,-0.3 0.17,-0.08 0.35,-0.12 0.55,-0.12 0.22,0 0.4,0.04 0.57,0.11 0.17,0.07 0.31,0.17 0.42,0.29 0.11,0.12 0.19,0.27 0.25,0.44 0.06,0.17 0.09,0.35 0.09,0.55 0,0.03 0,0.05 0,0.07 -0.01,0.02 -0.01,0.04 -0.01,0.06 0,0.01 0,0.03 0,0.05l-2 0c0.02,0.11 0.05,0.21 0.09,0.28 0.05,0.08 0.1,0.15 0.17,0.2 0.07,0.05 0.14,0.09 0.22,0.11 0.08,0.02 0.16,0.04 0.24,0.04 0.16,0 0.3,-0.04 0.4,-0.11 0.11,-0.08 0.19,-0.17 0.25,-0.28l0.59 0.29zm-0.64 -1.03c0,-0.04 -0.02,-0.1 -0.05,-0.15 -0.02,-0.06 -0.06,-0.12 -0.11,-0.17 -0.06,-0.05 -0.12,-0.09 -0.2,-0.12 -0.08,-0.03 -0.17,-0.05 -0.28,-0.05 -0.15,0 -0.28,0.04 -0.4,0.13 -0.11,0.09 -0.19,0.21 -0.24,0.36l1.28 0zm1.75 0.32l-0.91 -1.3 0.84 0 0.48 0.73 0.03 0 0.46 -0.73 0.86 0 -0.93 1.3 0.93 1.35 -0.83 0 -0.5 -0.76 -0.03 0 -0.48 0.76 -0.84 0 0.92 -1.35zm2.09 -1.3l0.67 0 0 0.32 0.04 0c0.07,-0.11 0.17,-0.21 0.3,-0.29 0.14,-0.08 0.31,-0.12 0.51,-0.12 0.17,0 0.33,0.04 0.48,0.11 0.16,0.07 0.29,0.17 0.41,0.29 0.12,0.12 0.21,0.27 0.28,0.45 0.07,0.17 0.1,0.36 0.1,0.56 0,0.21 -0.03,0.4 -0.1,0.57 -0.07,0.17 -0.16,0.32 -0.28,0.45 -0.12,0.12 -0.25,0.22 -0.41,0.29 -0.15,0.07 -0.31,0.1 -0.48,0.1 -0.2,0 -0.37,-0.04 -0.51,-0.12 -0.13,-0.08 -0.23,-0.17 -0.3,-0.28l-0.04 0 0.04 0.38 0 1.1 -0.71 0 0 -3.81zm1.37 2.08c0.1,0 0.19,-0.02 0.27,-0.05 0.09,-0.04 0.16,-0.09 0.23,-0.16 0.06,-0.06 0.11,-0.14 0.15,-0.23 0.04,-0.1 0.06,-0.2 0.06,-0.32 0,-0.11 -0.02,-0.22 -0.06,-0.31 -0.04,-0.09 -0.09,-0.17 -0.15,-0.24 -0.07,-0.06 -0.14,-0.11 -0.23,-0.15 -0.08,-0.04 -0.17,-0.05 -0.27,-0.05 -0.09,0 -0.18,0.01 -0.26,0.05 -0.09,0.03 -0.16,0.08 -0.23,0.15 -0.06,0.06 -0.11,0.14 -0.15,0.23 -0.04,0.1 -0.06,0.2 -0.06,0.32 0,0.12 0.02,0.23 0.06,0.32 0.04,0.1 0.09,0.17 0.15,0.24 0.07,0.06 0.14,0.11 0.23,0.15 0.08,0.03 0.17,0.05 0.26,0.05zm1.82 0.57l0 -3.87 0.71 0 0 3.87 -0.71 0zm2.54 -2.74c0.21,0 0.39,0.04 0.56,0.11 0.18,0.07 0.32,0.17 0.45,0.29 0.12,0.12 0.22,0.27 0.29,0.45 0.07,0.17 0.1,0.36 0.1,0.56 0,0.21 -0.03,0.4 -0.1,0.57 -0.07,0.17 -0.17,0.32 -0.29,0.45 -0.13,0.12 -0.27,0.22 -0.45,0.29 -0.17,0.07 -0.35,0.1 -0.56,0.1 -0.21,0 -0.39,-0.03 -0.56,-0.1 -0.18,-0.07 -0.32,-0.17 -0.45,-0.29 -0.12,-0.13 -0.22,-0.28 -0.29,-0.45 -0.07,-0.17 -0.11,-0.36 -0.11,-0.57 0,-0.2 0.04,-0.39 0.11,-0.56 0.07,-0.18 0.17,-0.33 0.29,-0.45 0.13,-0.12 0.27,-0.22 0.45,-0.29 0.17,-0.07 0.35,-0.11 0.56,-0.11zm0 2.17c0.09,0 0.18,-0.02 0.26,-0.05 0.09,-0.04 0.16,-0.09 0.23,-0.15 0.06,-0.07 0.11,-0.14 0.15,-0.24 0.04,-0.09 0.06,-0.2 0.06,-0.32 0,-0.12 -0.02,-0.22 -0.06,-0.32 -0.04,-0.09 -0.09,-0.17 -0.15,-0.23 -0.07,-0.07 -0.14,-0.12 -0.23,-0.15 -0.08,-0.04 -0.17,-0.05 -0.26,-0.05 -0.09,0 -0.18,0.01 -0.26,0.05 -0.09,0.03 -0.16,0.08 -0.23,0.15 -0.06,0.06 -0.11,0.14 -0.15,0.23 -0.04,0.1 -0.06,0.2 -0.06,0.32 0,0.12 0.02,0.23 0.06,0.32 0.04,0.1 0.09,0.17 0.15,0.24 0.07,0.06 0.14,0.11 0.23,0.15 0.08,0.03 0.17,0.05 0.26,0.05zm1.8 -2.08l0.67 0 0 0.37 0.04 0c0.03,-0.07 0.08,-0.13 0.13,-0.18 0.06,-0.06 0.12,-0.1 0.18,-0.14 0.07,-0.04 0.14,-0.08 0.22,-0.1 0.08,-0.02 0.15,-0.04 0.23,-0.04 0.09,0 0.17,0.01 0.24,0.03 0.07,0.02 0.12,0.05 0.17,0.08l-0.19 0.63c-0.04,-0.02 -0.09,-0.04 -0.14,-0.05 -0.06,-0.01 -0.12,-0.02 -0.19,-0.02 -0.1,0 -0.19,0.02 -0.27,0.06 -0.08,0.04 -0.15,0.09 -0.2,0.16 -0.06,0.07 -0.1,0.15 -0.13,0.24 -0.03,0.09 -0.05,0.19 -0.05,0.3l0 1.31 -0.71 0 0 -2.65zm4.55 2.01c-0.12,0.22 -0.29,0.39 -0.5,0.52 -0.2,0.14 -0.46,0.2 -0.76,0.2 -0.2,0 -0.38,-0.03 -0.55,-0.1 -0.18,-0.07 -0.32,-0.17 -0.45,-0.3 -0.13,-0.12 -0.22,-0.27 -0.29,-0.44 -0.07,-0.17 -0.11,-0.36 -0.11,-0.57 0,-0.19 0.03,-0.37 0.1,-0.54 0.07,-0.17 0.17,-0.32 0.29,-0.45 0.12,-0.13 0.27,-0.23 0.43,-0.3 0.17,-0.08 0.36,-0.12 0.56,-0.12 0.21,0 0.4,0.04 0.57,0.11 0.16,0.07 0.3,0.17 0.41,0.29 0.11,0.12 0.2,0.27 0.26,0.44 0.05,0.17 0.08,0.35 0.08,0.55 0,0.03 0,0.05 0,0.07 0,0.02 0,0.04 0,0.06 -0.01,0.01 -0.01,0.03 -0.01,0.05l-1.99 0c0.01,0.11 0.04,0.21 0.09,0.28 0.04,0.08 0.1,0.15 0.16,0.2 0.07,0.05 0.14,0.09 0.22,0.11 0.08,0.02 0.16,0.04 0.25,0.04 0.16,0 0.29,-0.04 0.4,-0.11 0.1,-0.08 0.19,-0.17 0.25,-0.28l0.59 0.29zm-0.64 -1.03c-0.01,-0.04 -0.02,-0.1 -0.05,-0.15 -0.03,-0.06 -0.07,-0.12 -0.12,-0.17 -0.05,-0.05 -0.12,-0.09 -0.19,-0.12 -0.08,-0.03 -0.17,-0.05 -0.28,-0.05 -0.15,0 -0.29,0.04 -0.4,0.13 -0.12,0.09 -0.2,0.21 -0.25,0.36l1.29 0zm1.14 -0.98l0.66 0 0 0.37 0.04 0c0.04,-0.07 0.08,-0.13 0.13,-0.18 0.06,-0.06 0.12,-0.1 0.18,-0.14 0.07,-0.04 0.14,-0.08 0.22,-0.1 0.08,-0.02 0.15,-0.04 0.23,-0.04 0.09,0 0.17,0.01 0.24,0.03 0.07,0.02 0.12,0.05 0.17,0.08l-0.19 0.63c-0.04,-0.02 -0.09,-0.04 -0.14,-0.05 -0.05,-0.01 -0.12,-0.02 -0.19,-0.02 -0.1,0 -0.19,0.02 -0.27,0.06 -0.08,0.04 -0.15,0.09 -0.2,0.16 -0.06,0.07 -0.1,0.15 -0.13,0.24 -0.03,0.09 -0.05,0.19 -0.05,0.3l0 1.31 -0.7 0 0 -2.65z"/>
 </g>
</svg>
